# xmcd
#
# Track frame offsets:
#	150
#	17858
#	31961
#	60066
#	78544
#	96202
#	111570
#	128521
#	153559
#	170634
#	189925
#	204395
#
# Disc length: 2801 seconds
#
# Revision: 12
# Processed by: cddbd v1.5.2PL0 Copyright (c) Steve Scherf et al.
# Submitted via: Jack! The Knife 20 Magnifico
#
DISCID=950aef0c
DTITLE=Gotthard - Gotthard
DYEAR=1992
DGENRE=Hard Rock
TTITLE0=Standing In The Light
TTITLE1=Downtown
TTITLE2=Firedance
TTITLE3=Hush
TTITLE4=Mean Street Rocket
TTITLE5=Get Down
TTITLE6=Take Me
TTITLE7=Angel
TTITLE8=Lonely Heartache
TTITLE9=Hunter
TTITLE10=All I Care For
TTITLE11="That's It"
EXTD=Chris Von Rohr
EXTT0=Lee, Leoni
EXTT1=Lee, Leoni
EXTT2=Lee, Leoni, von Rohr
EXTT3=Joe South
EXTT4=Lee, Leoni, von Rohr
EXTT5=Maurer, Mauser, von Rohr
EXTT6=Lee, Leoni
EXTT7=Lee, Leoni, Lynn
EXTT8=Lee, Leoni
EXTT9=Lee, Leoni
EXTT10=Lee, Leoni
EXTT11=Habegger, Leoni
PLAYORDER=
